<svg width="256" height="256" viewBox="0 0 256 256" xmlns="http://www.w3.org/2000/svg" role="img" aria-label="遗珍重光">
  <defs>
    <linearGradient id="ring" x1="0" y1="0" x2="1" y2="1">
      <stop offset="0%" stop-color="#183c86" />
      <stop offset="100%" stop-color="#5e7ec0" />
    </linearGradient>
    <linearGradient id="ink" x1="0" y1="0" x2="1" y2="1">
      <stop offset="0%" stop-color="#0a3d7b" />
      <stop offset="100%" stop-color="#173a71" />
    </linearGradient>
    <filter id="shadow" x="-20%" y="-20%" width="140%" height="140%">
      <feDropShadow dx="0" dy="5" stdDeviation="5" flood-color="#0d2447" flood-opacity="0.18" />
    </filter>
  </defs>
  <rect width="256" height="256" fill="none" />
  <circle cx="128" cy="128" r="114" fill="#f7f8fb" stroke="url(#ring)" stroke-width="10" filter="url(#shadow)" />
  <circle cx="128" cy="128" r="88" fill="none" stroke="#d7e1f1" stroke-width="3" />
  <circle cx="128" cy="128" r="74" fill="none" stroke="#8aa2d4" stroke-width="2" stroke-dasharray="2 8" />

  <g fill="none" stroke-linecap="round" stroke-linejoin="round">
    <path d="M35 151c20-28 47-34 70-21" stroke="#183c86" stroke-width="10" opacity="0.95" />
    <path d="M43 163c27-12 56-3 76 20" stroke="#5e7ec0" stroke-width="12" opacity="0.9" />
    <path d="M171 40c23 13 42 36 47 59" stroke="#183c86" stroke-width="8" opacity="0.85" />
    <path d="M177 48c20 10 35 28 40 48" stroke="#5e7ec0" stroke-width="9" opacity="0.8" />
  </g>

  <g fill="none" stroke-linecap="round" stroke-linejoin="round" opacity="0.95">
    <path d="M46 69c11-14 28-20 44-16" stroke="#183c86" stroke-width="8" />
    <path d="M51 82c13-9 28-10 41-5" stroke="#5e7ec0" stroke-width="7" />
    <path d="M192 168c-11 16-26 24-45 24" stroke="#183c86" stroke-width="8" />
    <path d="M186 158c-11 12-23 17-37 18" stroke="#5e7ec0" stroke-width="7" />
  </g>

  <g fill="url(#ink)">
    <path d="M67 92c9-23 33-34 58-28 8 2 14 6 19 12 5 6 7 13 5 20-2 8-8 14-16 18-5 2-11 4-18 5l4 8c11-1 20 1 28 5 9 5 15 12 18 22 3 11 2 22-3 32-6 11-15 18-28 22-15 4-31 2-46-6-12-7-21-16-27-27l16-7c6 10 14 17 24 21 10 4 20 5 30 2 8-3 13-8 16-15 3-7 3-14 1-20-3-7-8-12-15-15-7-3-16-5-28-4l-2-13c11-1 19-4 25-8 6-4 9-9 10-15 1-5-1-10-4-13-4-4-10-6-17-6-16 0-28 6-35 20l-16-8Z"/>
    <path d="M145 68h18l-1 92c0 10 4 16 13 19 7 2 13 1 18-2l7 15c-7 5-16 7-27 6-15-2-25-10-29-22-2-5-3-12-3-20V68Z"/>
    <path d="M159 92h57v16h-57zM159 124h50v16h-50z"/>
    <path d="M88 178h77v16H88z"/>
  </g>

  <g fill="#ffffff" opacity="0.9">
    <circle cx="66" cy="60" r="6" />
    <circle cx="192" cy="54" r="5" />
    <circle cx="205" cy="185" r="6" />
    <circle cx="58" cy="192" r="5" />
  </g>

  <text x="128" y="220" text-anchor="middle" fill="#0f294f" font-family="Noto Serif SC, Songti SC, serif" font-size="22" font-weight="700" letter-spacing="4">遗珍重光</text>
</svg>
